<?xml version="1.0" encoding="UTF-8"?>
<svg width="400" height="400" version="1.1" xmlns="http://www.w3.org/2000/svg">
 <path d="M0 200 A200 200 0 0 1 400 200z" fill="#0057b7"/>
 <path d="M400 200 A200 200 0 0 1 0 200z" fill="#ffd700"/>
 <g aria-label="RUSSIAN WARSHIP, GO FUCK YOURSELF!">
  <path d="m157.54 14.138 11.8 37.31-15.856 5.0145q-5.9808 1.8915-9.0006 1.7267-3.0371-0.13133-5.4789-2.1867t-3.4881-5.3639q-1.3281-4.1993 0.27133-7.7287 1.6074-3.5039 6.294-5.77-2.894-0.65252-5.0112-1.8587-2.1426-1.1981-6.2168-4.6969l-6.8576-5.8381 9.0094-2.8493 8.014 6.3962q4.2777 3.4344 5.7008 4.2162 1.4311 0.80721 2.7561 0.83612 1.333 0.05436 3.929-0.76664l1.527-0.48294-4.926-15.576zm-0.72391 23.914-5.5736 1.7627q-5.4209 1.7144-6.6249 2.5991-1.204 0.8847-1.6134 2.246-0.40935 1.3613 0.12188 3.041 0.59562 1.8833 1.9758 2.7066 1.3628 0.85681 3.2918 0.58269 0.95646-0.16251 5.5375-1.6113l5.879-1.8593z"/>
  <path d="m139.41 60.879-6.8765 3.8912-10.438-18.446q-2.4846-4.3907-3.4763-5.5471-1.6245-1.8411-3.997-2.1854-2.3825-0.308-5.2632 1.3221-2.9272 1.6564-3.7435 3.6825-0.80323 2.0494-0.1193 3.9626 0.68392 1.9132 2.9713 5.9555l10.661 18.841-6.8765 3.8912-10.122-17.888q-3.4705-6.1331-4.3458-8.9808-0.87534-2.8477-0.35123-5.4446 0.50088-2.5837 2.4183-5.0488 1.9306-2.4419 5.9728-4.7293 4.8786-2.7606 8.0418-3.0784 3.1531-0.28141 5.6289 0.67922 2.489 0.98386 4.071 2.6956 2.3301 2.5459 5.5639 8.2608z"/>
  <path d="m96.023 55.448-5.3091 5.6099q-3.0641-2.4644-5.8464-2.4496-2.8024 0.03232-5.521 2.3977-2.8797 2.5055-3.2783 4.9753-0.40127 2.5074 1.0179 4.1386 0.91109 1.0472 2.1661 1.229 1.2524 0.21946 3.2559-0.56842 1.3625-0.54861 5.894-2.8637 5.8265-2.9819 9.2665-2.9321 4.8386 0.07132 7.8873 3.5753 1.9624 2.2554 2.3932 5.3126 0.42825 3.0948-1.0746 6.2068-1.5229 3.1295-4.9262 6.0906-5.558 4.8358-10.477 4.8346-4.9393 0.01628-8.6195-3.9289l5.733-5.448q2.3625 1.9427 4.4897 1.8256 2.1246-0.07942 4.6418-2.2695 2.5978-2.2602 3.1392-4.6065 0.35075-1.5082-0.64794-2.656-0.9111-1.0472-2.4454-1.0213-1.9512 0.03471-7.1945 2.7922-5.2433 2.7575-8.2811 3.4546-3.0404 0.73475-5.8729-0.16211-2.8351-0.8592-5.2705-3.6583-2.2076-2.5373-2.7253-5.979t1.1138-6.7717q1.649-3.31 5.4953-6.6565 5.5983-4.8708 10.841-4.9038 5.2607-0.01287 10.155 4.4329z"/>
  <path d="m70.354 77.993-4.1425 6.519q-3.4777-1.8352-6.2061-1.2904-2.7449 0.56588-4.9628 3.406-2.3493 3.0084-2.2699 5.5089 0.08402 2.5379 1.7881 3.8687 1.094 0.8543 2.3606 0.79356 1.2713-0.02327 3.0879-1.1786 1.233-0.79826 5.2401-3.9346 5.1513-4.0378 8.5378-4.6445 4.7635-0.85225 8.4241 2.0064 2.3563 1.84 3.3619 4.759 1.0103 2.9565 0.12819 6.2979-0.89852 3.3624-3.675 6.9179-4.5344 5.8065-9.3636 6.7429-4.8457 0.95744-9.2103-2.2139l4.5895-6.4408q2.6895 1.4567 4.7553 0.93636 2.0705-0.48292 4.1241-3.1127 2.1193-2.7139 2.2036-5.1204 0.05686-1.5474-1.1423-2.4838-1.094-0.8543-2.5953-0.5365-1.9088 0.40598-6.5304 4.1123-4.6216 3.7064-7.4709 4.9697-2.8447 1.3008-5.7962 0.96026-2.9469-0.30307-5.8712-2.5867-2.6508-2.07-3.815-5.3499-1.1642-3.2798-0.19733-6.8599 0.98788-3.5636 4.1258-7.5819 4.5672-5.8486 9.708-6.8804 5.1618-1.0153 10.814 2.4161z"/>
  <path d="m37.754 101.05 33.807 19.708-3.9792 6.8259-33.807-19.708z"/>
  <path d="m16.468 146.97 3.2236-7.9677 9.5213 0.16642 5.8665-14.5-7.0285-6.3278 3.1435-7.7698 30.559 28.805-3.1335 7.745zm19.808-7.6792 15.483 0.44768-11.479-10.345z"/>
  <path d="m15.62 151.32 38.527 6.8507-1.3458 7.5688-28.533 11.193 25.729 4.5749-1.2851 7.2272-38.527-6.8507 1.3879-7.8054 27.886-11.064-25.124-4.4674z"/>
  <path d="m9.7313 211.11 37.497-14.579 1.1002 8.0128-25.827 9.5007 27.603 3.4308 1.2781 9.3086-26.146 10.514 27.896 2.2319 1.082 7.8805-40.061-4.0913-1.1401-8.3037 27.923-11.701-30.04-3.7159z"/>
  <path d="m29.658 286.51-3.0806-8.0241 7.0736-6.3756-5.6064-14.603-9.4558 0.17063-3.0041-7.8247 41.995 0.20345 2.9945 7.7998zm9.2391-19.13 11.624-10.238-15.45 0.27052z"/>
  <path d="m31.985 290.23 32.824-21.305 9.0538 13.949q3.4152 5.2617 4.06 8.2163 0.68177 2.9625-0.64954 5.8633-1.3313 2.9008-4.242 4.79-3.6944 2.3979-7.5221 1.7956-3.8054-0.61685-7.2371-4.5312 0.14128 2.9633-0.45783 5.3251-0.58458 2.3842-2.8728 7.2427l-3.8022 8.1641-5.1445-7.9261 4.0324-9.4274q2.172-5.0375 2.5468-6.6174 0.39718-1.5944 0.07239-2.8792-0.3024-1.2994-1.7847-3.5832l-0.87195-1.3434-13.703 8.8939zm23.244-5.6671 3.1826 4.9034q3.0954 4.7691 4.2687 5.6942 1.1732 0.92508 2.5944 0.95735 1.4211 0.0323 2.8989-0.92688 1.6569-1.0754 2.0831-2.625 0.46317-1.5417-0.31449-3.3282-0.41122-0.87871-3.0271-4.9089l-3.357-5.1721z"/>
  <path d="m61.984 312.49 5.92 4.9609q-2.275 3.2072-2.0924 5.9836 0.20135 2.7954 2.7264 5.3663 2.6747 2.7233 5.164 2.9722 2.5271 0.24924 4.0696-1.2658 0.99028-0.97261 1.096-2.2363 0.1435-1.2634-0.76383-3.2157-0.62982-1.327-3.2141-5.7104-3.328-5.636-3.4858-9.0727-0.22075-4.8341 3.0929-8.0886 2.1329-2.0948 5.1585-2.7094 3.0634-0.6142 6.2604 0.6981 3.2157 1.3314 6.3767 4.5498 5.1623 5.2561 5.4579 10.166 0.31428 4.9293-3.4016 8.8409l-5.784-5.3938q1.7966-2.4754 1.5514-4.5916-0.20746-2.1159-2.5455-4.4964-2.4128-2.4566-4.7875-2.8555-1.5266-0.25912-2.6121 0.80702-0.99028 0.97261-0.87192 2.5026 0.15237 1.9455 3.2212 7.0129 3.0689 5.0674 3.948 8.0576 0.91686 2.9906 0.19254 5.872-0.68657 2.8818-3.3337 5.4816-2.3995 2.3567-5.8036 3.0811-3.4041 0.72439-6.8266-0.7032-3.4034-1.4463-6.9759-5.0836-5.1997-5.2942-5.549-10.526-0.33026-5.2504 3.8121-10.404z"/>
  <path d="m80.423 348.49 21.939-32.404 6.5426 4.4296-8.6347 12.754 12.82 8.6796 8.6347-12.754 6.5426 4.4296-21.939 32.404-6.5426-4.4296 9.5925-14.168-12.82-8.6796-9.5925 14.168z"/>
  <path d="m113.66 369.3 17.094-35.201 7.1074 3.4515-17.094 35.201z"/>
  <path d="m127.55 376 12.859-36.959 11.975 4.1665q6.8068 2.3683 8.6811 3.6422 2.8871 1.9372 4.0563 5.4811 1.178 3.5187-0.35701 7.9306-1.1842 3.4034-3.2265 5.293t-4.4232 2.5591q-2.3469 0.65308-4.4624 0.39747-2.8565-0.40036-7.9238-2.1634l-4.8656-1.6929-4.8507 13.941zm18.146-28.11-3.649 10.488 4.0841 1.421q4.4118 1.535 6.101 1.4727 1.6892-0.0623 2.9509-1.0082 1.287-0.93708 1.8571-2.5758 0.70173-2.0168-0.027-3.74-0.72877-1.7232-2.4299-2.6825-1.2484-0.71699-5.2821-2.1204z"/>
  <path d="m157.03 377.46 7.3247 1.6154-1.1555 5.2394q-0.70133 3.1801-1.6511 4.884-0.95555 1.73-2.8154 2.8506-1.8338 1.1263-4.3637 1.4431l-0.76682-3.3399q2.3766-0.24124 3.5967-1.3116 1.2201-1.0703 1.7608-3.2745l-3.545-0.78181z"/>
  <path d="m203.54 375.61-0.10511-6.5923 17.028-0.27148 0.24851 15.587q-2.4438 2.4416-7.1385 4.3585-4.6684 1.8898-9.4992 1.9668-6.1386 0.0979-10.743-2.3916-4.6052-2.5161-6.9766-7.2569-2.3719-4.7675-2.4617-10.399-0.0975-6.1119 2.389-10.903 2.4864-4.7916 7.3836-7.4058 3.7322-2.0083 9.3369-2.0977 7.2862-0.11617 11.419 2.888 4.1587 2.9771 5.419 8.3496l-7.8233 1.593q-0.87333-2.8693-3.195-4.4874-2.2954-1.6453-5.7117-1.5908-5.1778 0.0826-8.1947 3.4143-2.9903 3.3313-2.8873 9.7902 0.11107 6.966 3.2628 10.413 3.1513 3.4203 8.1689 3.3403 2.4821-0.0396 4.9489-1.04 2.4931-1.0275 4.2591-2.4439l-0.0791-4.9642z"/>
  <path d="m222 370.29q-1.411-5.8103-0.63057-10.175 0.59144-3.2201 2.2616-6.0704 1.6961-2.8566 4.0969-4.6208 3.1883-2.3674 7.8314-3.495 8.4042-2.0409 14.703 1.9508 6.3242 3.9854 8.5793 13.272 2.2362 9.2083-1.5039 15.638-3.7464 6.4035-12.125 8.4382-8.482 2.0598-14.742-1.8863-6.266-3.9721-8.4708-13.051zm7.8484-2.1806q1.5685 6.4588 5.3641 9.0805 3.7893 2.5958 8.3805 1.4808 4.5912-1.115 6.7223-5.121 2.1508-4.0383 0.54447-10.653-1.5874-6.5366-5.2477-9.0538-3.6344-2.5235-8.3812-1.3708-4.7468 1.1528-6.8583 5.1266-2.1178 3.9479-0.52409 10.51z"/>
  <path d="m283.1 371.38-19.374-33.999 23.308-13.282 3.2775 5.7516-16.443 9.3698 4.5858 8.0475 14.193-8.0879 3.2774 5.7516-14.193 8.0879 8.2333 14.448z"/>
  <path d="m286.34 324.79 5.9876-5.1552 13.829 16.061q3.2917 3.8231 4.4895 4.7643 1.9518 1.4896 4.3459 1.3656 2.3969-0.16165 4.9052-2.3213 2.5488-2.1944 2.9551-4.3407 0.38896-2.1665-0.6543-3.91-1.0432-1.7435-4.0737-5.2632l-14.125-16.405 5.9876-5.1552 13.411 15.576q4.5979 5.3403 6.0108 7.9631 1.4129 2.6229 1.4043 5.272 0.0116 2.6318-1.3893 5.423-1.4183 2.771-4.938 5.8014-4.2479 3.6574-7.2888 4.5848-3.038 0.88978-5.6535 0.42943-2.6328-0.48058-4.5178-1.8516-2.7811-2.0437-7.0655-7.0198z"/>
  <path d="m345.11 299.33 6.5814-4.6123q4.0206 5.2895 4.0063 10.452-0.0193 5.1251-3.8442 10.131-4.7324 6.1932-12 6.9554-7.2888 0.74601-14.627-4.8616-7.7627-5.9317-8.9839-13.214-1.2424-7.2986 3.7493-13.831 4.3597-5.7054 10.455-6.6917 3.6144-0.59751 8.1576 1.1944l-3.264 7.3489q-2.8393-1.2961-5.5843-0.6054-2.7288 0.66953-4.6412 3.1723-2.6417 3.4572-1.8133 7.5167 0.84462 4.0384 6.4015 8.2846 5.8962 4.5055 10.02 4.297 4.1234-0.20854 6.7165-3.6021 1.9124-2.5027 1.6993-5.5211t-3.0282-6.4124z"/>
  <path d="m364.75 295.92-35.31-16.868 3.4057-7.1294 15.68 7.4903-8.7994-21.894 4.5793-9.5861 7.4018 19.865 28.253-3.7202-4.4067 9.2248-21.208 1.7906 3.1396 8.5995 10.67 5.0971z"/>
  <path d="m386.62 236.14-16.231-2.7934-24.765 10.283 1.571-9.1282 16.819-6.4497-13.727-11.517 1.5438-8.9704 19.946 18.032 16.178 2.7843z"/>
  <path d="m371.31 212.45q-5.9747 0.23133-10.098-1.3988-3.039-1.218-5.5017-3.4199-2.4637-2.2286-3.717-4.9315-1.6885-3.5943-1.8734-8.3687-0.33461-8.642 4.8263-14.024 5.1599-5.4088 14.709-5.7785 9.4689-0.36663 15.029 4.5737 5.5339 4.9413 5.8675 13.557 0.33771 8.722-4.7709 14.075-5.1353 5.3544-14.471 5.7159zm-0.58171-8.1249q6.6416-0.25716 9.9636-3.4578 3.2954-3.1996 3.1126-7.9207-0.18279-4.7211-3.687-7.604-3.5319-2.9085-10.333-2.6452-6.7216 0.26025-9.9144 3.349-3.1938 3.0621-3.0048 7.9432 0.18899 4.8811 3.6654 7.7384 3.4498 2.8583 10.198 2.597z"/>
  <path d="m350 177.47-1.9769-7.6498 20.52-5.3029q4.8845-1.2623 6.2583-1.9206 2.199-1.0921 3.1463-3.2944 0.91469-2.2214 0.0865-5.426-0.84152-3.2563-2.587-4.5697-1.7713-1.3067-3.7964-1.1418-2.0251 0.16494-6.5219 1.327l-20.959 5.4165-1.9769-7.6498 19.9-5.1426q6.8228-1.7632 9.8-1.8709 2.9773-0.10773 5.3497 1.0712 2.3657 1.1531 4.25 3.6437 1.8584 2.4973 3.0205 6.9941 1.4025 5.4272 0.89002 8.5648-0.54505 3.1184-2.1143 5.2608-1.5951 2.1491-3.6582 3.2337-3.0626 1.591-9.4202 3.234z"/>
  <path d="m377.17 129.51-35.051 17.398-7.3936-14.896q-2.7889-5.6187-3.0905-8.6279-0.33738-3.0212 1.318-5.75 1.6553-2.7289 4.7636-4.2717 3.9451-1.9582 7.6785-0.92068 3.7095 1.0494 6.6694 5.3316 0.19963-2.9599 1.0658-5.2374 0.85426-2.3014 3.6848-6.8652l4.7138-7.674 4.2012 8.464-5.0874 8.9024q-2.7356 4.7551-3.2892 6.2815-0.57748 1.5382-0.40225 2.8519 0.15133 1.3255 1.3618 3.7643l0.71207 1.4346 14.633-7.2631zm-23.74 2.9629-2.599-5.2362q-2.5278-5.0927-3.5872-6.1463-1.0594-1.0536-2.4674-1.2487-1.408-0.19511-2.9861 0.58817-1.7693 0.87821-2.3705 2.3686-0.637 1.4784-0.0694 3.3423 0.30769 0.92008 2.4439 5.2238l2.7415 5.5231z"/>
  <path d="m349.93 103.95-5.3153-5.604q2.6261-2.9267 2.7615-5.7058 0.11892-2.8001-2.0963-5.6423-2.3465-3.0107-4.7912-3.542-2.4821-0.53596-4.1875 0.79317-1.0948 0.85327-1.344 2.0967-0.28672 1.2387 0.39193 3.2819 0.4743 1.3901 2.5415 6.0399 2.6632 5.9789 2.4278 9.4112-0.33226 4.8277-3.9956 7.6829-2.358 1.8378-5.434 2.1031-3.1134 0.26066-6.1398-1.4079-3.0428-1.6896-5.8159-5.2476-4.5289-5.8108-4.2623-10.723 0.25022-4.933 4.3882-8.395l5.1308 6.0185q-2.0673 2.2542-2.0651 4.3847-0.0353 2.1258 2.0158 4.7575 2.1168 2.7159 4.4305 3.3831 1.487 0.43161 2.6871-0.5037 1.0948-0.85327 1.1518-2.3868 0.0706-1.9502-2.4-7.3347-2.4706-5.3844-3.0028-8.4554-0.56964-3.0757 0.47872-5.8556 1.0109-2.7846 3.9374-5.0655 2.6528-2.0675 6.1173-2.3988 3.4645-0.33124 6.7018 1.4775 3.2162 1.8252 6.3503 5.8464 4.5617 5.8529 4.3118 11.09-0.27097 5.2537-4.9743 9.9009z"/>
  <path d="m335.66 66.19-25.702 29.507-21.879-19.058 4.348-4.9917 15.921 13.868 5.698-6.5416-14.814-12.904 4.3305-4.9716 14.814 12.904 6.9954-8.031-16.485-14.359 4.3304-4.9716z"/>
  <path d="m307.36 42.746-19.738 33.417-6.803-4.0183 16.385-27.741-16.916-9.9913 3.3531-5.6768z"/>
  <path d="m278.34 26.427-13.721 36.647-25.123-9.4063 2.3212-6.1996 17.724 6.6359 3.2477-8.6744-15.299-5.728 2.3212-6.1996 15.299 5.728 5.831-15.574z"/>
  <path d="m241.72 24.935-2.4713 19.801-2.0215 8.9571-7.9155-1.7864 2.0215-8.9571 6.2468-18.949zm3.8096-9.4839-1.6513 7.3167-7.3167-1.6513 1.6513-7.3167z"/>
 </g>
</svg>
