<?xml version="1.0" encoding="UTF-8"?>
<svg width="430" height="430" version="1.1" xmlns="http://www.w3.org/2000/svg">
 <g font-family="Arial" font-weight="bold" text-anchor="middle">
  <g transform="scale(.80705 1.2391)" fill="#0057b7" stroke-width=".81718" aria-label="RUSSIAN">
   <path d="m-7.5765e-4 79.322v-77.992h40.167q11.172 0 17.077 1.9152 5.9053 1.9152 9.5229 7.1289 3.6176 5.1605 3.6176 12.609 0 6.4905-2.7664 11.225-2.7664 4.6817-7.6077 7.6077-3.0856 1.862-8.4589 3.0856 4.3093 1.4364 6.2777 2.8728 1.33 0.95761 3.8304 4.0965 2.5536 3.1388 3.4048 4.8413l11.651 22.61h-27.239l-12.875-23.834q-2.4472-4.6285-4.3625-6.0117-2.6068-1.8088-5.9053-1.8088h-2.128v31.654zm24.206-46.391h10.161q1.6492 0 6.3841-1.064 2.394-0.47881 3.8836-2.4472 1.5428-1.9684 1.5428-4.5221 0-3.7772-2.394-5.7989-2.394-2.0216-8.9909-2.0216h-10.587z"/>
   <path d="m133.35 1.33h24.047v46.497q0 6.9161-2.1812 13.087-2.128 6.1181-6.7565 10.747-4.5753 4.5753-9.6293 6.4373-7.0225 2.6068-16.865 2.6068-5.6925 0-12.449-0.79801-6.7033-0.79801-11.225-3.1388-4.5221-2.394-8.2993-6.7565-3.724-4.3625-5.1073-8.9909-2.2344-7.4481-2.2344-13.194v-46.497h24.047v47.615q0 6.3841 3.5112 10.002 3.5644 3.5644 9.8421 3.5644 6.2245 0 9.7357-3.5112 3.5644-3.5644 3.5644-10.055z"/>
   <path d="m169.34 53.52 22.929-1.4364q0.74481 5.5861 3.0324 8.5121 3.724 4.7349 10.64 4.7349 5.1605 0 7.9269-2.394 2.8196-2.4472 2.8196-5.6393 0-3.0324-2.66-5.4265-2.66-2.394-12.343-4.5221-15.854-3.5644-22.61-9.4697-6.8097-5.9053-6.8097-15.056 0-6.0117 3.458-11.332 3.5112-5.3733 10.481-8.4057 7.0225-3.0856 19.205-3.0856 14.949 0 22.77 5.5861 7.8737 5.5329 9.3633 17.663l-22.717 1.33q-0.90441-5.2669-3.8304-7.6609-2.8728-2.394-7.9801-2.394-4.2028 0-6.3309 1.8088-2.128 1.7556-2.128 4.3093 0 1.862 1.7556 3.3516 1.7024 1.5428 8.0865 2.8728 15.801 3.4048 22.61 6.9161 6.8629 3.458 9.9485 8.6185 3.1388 5.1605 3.1388 11.545 0 7.5013-4.1497 13.832-4.1496 6.3309-11.598 9.6293-7.4481 3.2452-18.78 3.2452-19.897 0-27.558-7.6609-7.6609-7.6609-8.6717-19.471z"/>
   <path d="m248.07 53.52 22.93-1.4364q0.74481 5.5861 3.0324 8.5121 3.724 4.7349 10.64 4.7349 5.1605 0 7.9269-2.394 2.8196-2.4472 2.8196-5.6393 0-3.0324-2.66-5.4265-2.66-2.394-12.343-4.5221-15.854-3.5644-22.61-9.4697-6.8097-5.9053-6.8097-15.056 0-6.0117 3.458-11.332 3.5112-5.3733 10.481-8.4057 7.0225-3.0856 19.205-3.0856 14.949 0 22.77 5.5861 7.8737 5.5329 9.3633 17.663l-22.717 1.33q-0.90441-5.2669-3.8304-7.6609-2.8728-2.394-7.9801-2.394-4.2028 0-6.3309 1.8088-2.128 1.7556-2.128 4.3093 0 1.862 1.7556 3.3516 1.7024 1.5428 8.0865 2.8728 15.801 3.4048 22.61 6.9161 6.8629 3.458 9.9485 8.6185 3.1388 5.1605 3.1388 11.545 0 7.5013-4.1496 13.832-4.1496 6.3309-11.598 9.6293-7.4481 3.2452-18.78 3.2452-19.897 0-27.558-7.6609-7.6609-7.6609-8.6717-19.471z"/>
   <path d="m331.97 1.33h24.153v77.992h-24.153z"/>
   <path d="m421.35 66.448h-27.452l-3.7772 12.875h-24.632l29.314-77.992h26.281l29.314 77.992h-25.217zm-5.0541-16.865-8.6185-28.037-8.5653 28.037z"/>
   <path d="m458.22 1.33h22.504l29.367 43.146v-43.146h22.717v77.992h-22.717l-29.207-42.827v42.827h-22.663z"/>
  </g>
  <g transform="scale(.78387 1.2757)" fill="#0057b7" stroke-width=".79422" aria-label="WARSHIP">
   <path d="m0.0017886 87.52h22.234l8.0145 42.348 11.686-42.348h22.182l11.737 42.348 8.0145-42.348h22.13l-16.701 75.802h-22.958l-13.289-47.725-13.237 47.725h-22.958z"/>
   <path d="m160.34 150.81h-26.681l-3.6712 12.513h-23.94l28.49-75.802h25.543l28.49 75.802h-24.509zm-4.9121-16.391-8.3765-27.249-8.3248 27.249z"/>
   <path d="m196.33 163.32v-75.802h39.038q10.858 0 16.598 1.8614 5.7394 1.8614 9.2555 6.9287 3.516 5.0155 3.516 12.254 0 6.3082-2.6887 10.91-2.6887 4.5502-7.394 7.394-2.999 1.8097-8.2213 2.999 4.1882 1.3961 6.1014 2.7922 1.2927 0.93072 3.7229 3.9814 2.4819 3.0507 3.3092 4.7053l11.324 21.975h-26.474l-12.513-23.165q-2.3785-4.4985-4.2399-5.8428-2.5336-1.758-5.7394-1.758h-2.0683v30.765zm23.526-45.088h9.876q1.6029 0 6.2048-1.0341 2.3268-0.46536 3.7746-2.3785 1.4995-1.9132 1.4995-4.3951 0-3.6712-2.3268-5.636-2.3268-1.9648-8.7384-1.9648h-10.29z"/>
   <path d="m274.25 138.24 22.286-1.3961q0.7239 5.4292 2.9473 8.273 3.6195 4.6019 10.341 4.6019 5.0155 0 7.7043-2.3268 2.7404-2.3785 2.7404-5.4809 0-2.9473-2.5853-5.2741-2.5853-2.3268-11.996-4.3951-15.409-3.4643-21.975-9.2038-6.6184-5.7394-6.6184-14.633 0-5.8428 3.3609-11.013 3.4126-5.2224 10.186-8.1696 6.8253-2.999 18.666-2.999 14.53 0 22.13 5.4292 7.6526 5.3775 9.1004 17.167l-22.079 1.2927q-0.87901-5.119-3.7229-7.4457-2.7922-2.3268-7.756-2.3268-4.0848 0-6.1531 1.758-2.0683 1.7063-2.0683 4.1882 0 1.8097 1.7063 3.2575 1.6546 1.4995 7.8594 2.7922 15.357 3.3092 21.975 6.7218 6.6701 3.3609 9.6691 8.3765 3.0507 5.0155 3.0507 11.22 0 7.2906-4.0331 13.444t-11.272 9.3589q-7.2389 3.1541-18.252 3.1541-19.338 0-26.784-7.4458-7.4457-7.4457-8.4282-18.925z"/>
   <path d="m354.97 87.52h23.423v26.525h25.595v-26.525h23.526v75.802h-23.526v-30.662h-25.595v30.662h-23.423z"/>
   <path d="m444.11 87.52h23.475v75.802h-23.475z"/>
   <path d="m484.23 87.52h38.935q12.72 0 19.028 6.0497 6.3599 6.0497 6.3599 17.218 0 11.479-6.9287 17.942-6.877 6.4633-21.045 6.4633h-12.823v28.128h-23.526zm23.526 32.317h5.7394q6.7736 0 9.514-2.3268 2.7404-2.3785 2.7404-6.0497 0-3.5678-2.3785-6.0497-2.3785-2.4819-8.9452-2.4819h-6.6701z"/>
  </g>
  <g transform="scale(.79274 1.2615)" fill="#ffd700" stroke-width=".80266" aria-label="GO FUCK">
   <path d="m41.439 224.57v-15.938h36.58v32.661q-10.504 7.1592-18.603 9.772-8.0476 2.5606-19.126 2.5606-13.639 0-22.261-4.6509-8.5701-4.6509-13.325-13.848-4.7031-9.1972-4.7031-21.112 0-12.542 5.1734-21.791 5.1734-9.3017 15.154-14.109 7.7863-3.7102 20.955-3.7102 12.698 0 18.969 2.2993 6.3231 2.2993 10.451 7.1592 4.1805 4.8076 6.2708 12.228l-22.836 4.076q-1.4109-4.3373-4.8076-6.6366-3.3444-2.2993-8.5701-2.2993-7.7863 0-12.437 5.4347-4.5986 5.3824-4.5986 17.088 0 12.437 4.6509 17.767 4.7031 5.3302 13.064 5.3302 3.9715 0 7.5772-1.1496 3.6057-1.1496 8.2566-3.9193v-7.2114z"/>
   <path d="m89.202 214.06q0-18.76 10.451-29.212 10.451-10.451 29.107-10.451 19.126 0 29.473 10.295 10.347 10.242 10.347 28.741 0 13.43-4.5463 22.052-4.4941 8.5701-13.064 13.378-8.5179 4.7554-21.269 4.7554-12.96 0-21.478-4.1283-8.4656-4.1283-13.744-13.064-5.2779-8.9359-5.2779-22.366zm23.672 0.10451q0 11.601 4.2851 16.67 4.3373 5.0689 11.758 5.0689 7.6295 0 11.81-4.9644t4.1806-17.82q0-10.817-4.3896-15.782-4.3373-5.0167-11.81-5.0167-7.1592 0-11.497 5.0689-4.3373 5.0689-4.3373 16.774z"/>
   <path d="m217.28 175.71h58.528v16.461h-34.751v13.378h29.682v15.468h-29.682v31.302h-23.777z"/>
   <path d="m338.52 175.71h23.62v45.672q0 6.7934-2.1425 12.855-2.0903 6.0095-6.6366 10.556-4.4941 4.4941-9.4585 6.3231-6.8979 2.5606-16.565 2.5606-5.5915 0-12.228-0.78385-6.5844-0.78386-11.026-3.0832-4.4418-2.3516-8.1521-6.6366-3.658-4.2851-5.0167-8.8314-2.1948-7.316-2.1948-12.96v-45.672h23.62v46.77q0 6.2708 3.449 9.8243 3.5012 3.5012 9.6675 3.5012 6.114 0 9.563-3.449 3.5012-3.5012 3.5012-9.8765z"/>
   <path d="m428.92 221.01 20.746 6.2708q-2.0903 8.7269-6.5844 14.58-4.4941 5.8528-11.183 8.8314-6.6366 2.9786-16.931 2.9786-12.489 0-20.432-3.6057-7.8908-3.658-13.639-12.803-5.7483-9.1449-5.7483-23.411 0-19.021 10.086-29.212 10.138-10.242 28.637-10.242 14.475 0 22.732 5.8528 8.3088 5.8528 12.333 17.976l-20.903 4.6509q-1.0974-3.5012-2.2993-5.1212-1.9858-2.7174-4.8599-4.1805-2.8741-1.4632-6.4276-1.4632-8.0476 0-12.333 6.4798-3.2399 4.8076-3.2399 15.102 0 12.751 3.867 17.506 3.867 4.7031 10.869 4.7031 6.7934 0 10.242-3.8148 3.5012-3.8147 5.0689-11.078z"/>
   <path d="m461.22 175.71h23.672v28.95l24.822-28.95h31.459l-27.905 28.898 29.159 47.71h-29.159l-16.147-31.511-12.228 12.803v18.708h-23.672z"/>
  </g>
  <g transform="scale(.71575 1.3971)" fill="#ffd700" stroke-width=".72469" aria-label="YOURSELF!">
   <path d="m1.0486e-4 237.38h23.733l13.966 23.355 13.966-23.355h23.591l-26.894 40.199v28.97h-21.421v-28.97z"/>
   <path d="m73.675 272.01q0-16.938 9.4364-26.375 9.4364-9.4364 26.28-9.4364 17.269 0 26.611 9.2948 9.342 9.2477 9.342 25.95 0 12.126-4.1048 19.911-4.0576 7.7378-11.796 12.079-7.6907 4.2936-19.203 4.2936-11.701 0-19.392-3.7274-7.6435-3.7274-12.409-11.795-4.7654-8.0681-4.7654-20.194zm21.373 0.0944q0 10.474 3.8689 15.051 3.9161 4.5767 10.616 4.5767 6.8886 0 10.663-4.4823t3.7746-16.089q0-9.7667-3.9633-14.249-3.9161-4.5295-10.663-4.5295-6.4639 0-10.38 4.5766-3.9161 4.5767-3.9161 15.145z"/>
   <path d="m202.03 237.38h21.326v41.237q0 6.1337-1.9345 11.607-1.8873 5.4259-5.9921 9.5308-4.0576 4.0576-8.5399 5.709-6.228 2.3119-14.957 2.3119-5.0485 0-11.041-0.70773-5.9449-0.70773-9.9554-2.7837-4.0105-2.1232-7.3604-5.9921-3.3027-3.8689-4.5295-7.9738-1.9816-6.6055-1.9816-11.701v-41.237h21.326v42.228q0 5.6618 3.114 8.8702 3.1612 3.1612 8.7287 3.1612 5.5203 0 8.6343-3.114 3.1612-3.1612 3.1612-8.9174z"/>
   <path d="m237.89 306.55v-69.169h35.622q9.9082 0 15.145 1.6986t8.4456 6.3224q3.2084 4.5766 3.2084 11.182 0 5.7562-2.4535 9.9554-2.4535 4.152-6.747 6.747-2.7366 1.6514-7.5019 2.7366 3.8217 1.2739 5.5675 2.5478 1.1796 0.84928 3.3971 3.633 2.2647 2.7837 3.0196 4.2936l10.333 20.052h-24.157l-11.418-21.138q-2.1704-4.1048-3.8689-5.3316-2.3119-1.6042-5.2372-1.6042h-1.8873v28.073zm21.468-41.143h9.0118q1.4626 0 5.6618-0.94364 2.1232-0.42464 3.4443-2.1704 1.3683-1.7457 1.3683-4.0105 0-3.3499-2.1232-5.1428-2.1232-1.7929-7.9738-1.7929h-9.3892z"/>
   <path d="m308.99 283.66 20.335-1.2739q0.66055 4.9541 2.6894 7.5491 3.3027 4.1992 9.4364 4.1992 4.5767 0 7.0301-2.1232 2.5006-2.1704 2.5006-5.0013 0-2.6894-2.3591-4.8126-2.3591-2.1232-10.946-4.0105-14.06-3.1612-20.052-8.3984-6.0393-5.2372-6.0393-13.352 0-5.3316 3.0668-10.05 3.114-4.7654 9.2948-7.4548 6.228-2.7366 17.033-2.7366 13.258 0 20.194 4.9541 6.9829 4.9069 8.304 15.664l-20.147 1.1796q-0.80209-4.671-3.3971-6.7942-2.5478-2.1232-7.0773-2.1232-3.7274 0-5.6146 1.6042-1.8873 1.557-1.8873 3.8217 0 1.6514 1.557 2.9725 1.5098 1.3683 7.1717 2.5478 14.013 3.0196 20.052 6.1337 6.0865 3.0668 8.823 7.6435 2.7837 4.5766 2.7837 10.238 0 6.6527-3.6802 12.267-3.6802 5.6146-10.286 8.5399-6.6055 2.8781-16.655 2.8781-17.646 0-24.44-6.7942-6.7942-6.7942-7.6907-17.269z"/>
   <path d="m382.5 237.38h57.279v14.768h-35.858v10.993h33.263v14.107h-33.263v13.636h36.896v15.664h-58.317z"/>
   <path d="m452.38 237.38h21.373v52.136h33.358v17.033h-54.731z"/>
   <path d="m517.02 237.38h52.844v14.862h-31.376v12.079h26.799v13.966h-26.799v28.262h-21.468z"/>
   <path d="m580.24 237.38h20.524v15.759l-3.9633 31.659h-12.692l-3.8689-31.659zm0.70773 52.23h19.156v16.938h-19.156z"/>
  </g>
 </g>
</svg>
